# xmcd
#
# Track frame offsets: 
#        150
#        11201
#        22687
#        36905
#        48287
#        58948
#        72440
#        83958
#        97060
#        109959
#        123098
#
# Disc length: 1821 seconds
#
# Revision: 0
# Processed by: cddbd v1.5.2PL0 Copyright (c) Steve Scherf et al.
# Submitted via: ExactAudioCopy v1.0b4
#
DISCID=92071b0b
DTITLE=Lowell Fulson - Hung Down Head (LP)
DYEAR=1970
DGENRE=Blues
TTITLE0=That's All Right
TTITLE1=I Still Love You Baby
TTITLE2=Reconsider Baby
TTITLE3=I Want To Know
TTITLE4=Low Society
TTITLE5=Check Yourself
TTITLE6=It's Your Own Fault
TTITLE7=Do Me Right
TTITLE8=Trouble, Trouble
TTITLE9=Hung Down Head
TTITLE10=Tollin' Bells
EXTD=
EXTT0=
EXTT1=
EXTT2=
EXTT3=
EXTT4=
EXTT5=
EXTT6=
EXTT7=
EXTT8=
EXTT9=
EXTT10=
PLAYORDER=
